<svg width="50" height="50" viewBox="0 0 50 50" fill="none" xmlns="http://www.w3.org/2000/svg">
    <path d="M46 42C46 44.2091 44.2091 46 42 46H4V8C4 5.79086 5.79086 4 8 4H46V42Z" fill="#164E63"/>
    <path d="M18 46H42C44.2091 46 46 44.2091 46 42V18H18V46Z" fill="#38BDF8"/>
    <path d="M18 4H8C5.79086 4 4 5.79086 4 8V18H18V4Z" fill="#22C55E"/>
    <rect x="11" y="10" width="21" height="29" rx="2.5" fill="#F8FAFC"/>
    <path d="M26 10V16C26 17.1046 26.8954 18 28 18H32" fill="#D7F3FF"/>
    <path d="M26 10L32 18" stroke="#94A3B8" stroke-width="1.3" stroke-linecap="round"/>
    <path d="M15 22H28M15 27H28M15 32H24" stroke="#94A3B8" stroke-width="1.5" stroke-linecap="round"/>
    <path d="M20 20V34" stroke="#CBD5E1" stroke-width="1.2" stroke-linecap="round"/>
    <circle cx="36" cy="31" r="8" fill="#0F172A"/>
    <path d="M30.5 31H41.5M36 23.5C38 25.4 39 27.9 39 31C39 34.1 38 36.6 36 38.5M36 23.5C34 25.4 33 27.9 33 31C33 34.1 34 36.6 36 38.5" stroke="#E0F2FE" stroke-width="1.3" stroke-linecap="round"/>
    <path d="M30 24L38 16M38 16V22M38 16H32" stroke="#FACC15" stroke-width="2.4" stroke-linecap="round" stroke-linejoin="round"/>
</svg>
