<svg width="50" height="50" viewBox="0 0 50 50" fill="none" xmlns="http://www.w3.org/2000/svg">
    <path d="M46 42C46 44.2091 44.2091 46 42 46H4V8C4 5.79086 5.79086 4 8 4H46V42Z" fill="#4338CA"/>
    <path d="M18 46H42C44.2091 46 46 44.2091 46 42V18H18V46Z" fill="#14B8A6"/>
    <path d="M18 4H8C5.79086 4 4 5.79086 4 8V18H18V4Z" fill="#F97316"/>
    <rect x="10" y="9" width="25" height="31" rx="3" fill="#F8FAFC"/>
    <path d="M15 17H30M15 24H30M15 31H24" stroke="#94A3B8" stroke-width="1.6" stroke-linecap="round"/>
    <rect x="14" y="14" width="4" height="4" rx="1" fill="#DBEAFE"/>
    <rect x="14" y="21" width="4" height="4" rx="1" fill="#CCFBF1"/>
    <rect x="14" y="28" width="4" height="4" rx="1" fill="#FFEDD5"/>
    <path d="M15.1 16.1L16.2 17.2L18.3 14.8" stroke="#2563EB" stroke-width="1.2" stroke-linecap="round" stroke-linejoin="round"/>
    <path d="M15.1 23.1L16.2 24.2L18.3 21.8" stroke="#0F766E" stroke-width="1.2" stroke-linecap="round" stroke-linejoin="round"/>
    <path d="M15.1 30.1L16.2 31.2L18.3 28.8" stroke="#EA580C" stroke-width="1.2" stroke-linecap="round" stroke-linejoin="round"/>
    <circle cx="35" cy="33" r="9" fill="#0F172A"/>
    <path d="M35 27.5V33L38.5 35" stroke="#F8FAFC" stroke-width="1.7" stroke-linecap="round" stroke-linejoin="round"/>
    <path d="M30.3 30.6C31.2 28.8 33 27.5 35 27.5C37.9 27.5 40.3 29.9 40.3 32.8" stroke="#67E8F9" stroke-width="1.3" stroke-linecap="round"/>
    <path d="M39.7 35.5C38.8 37.2 37 38.5 35 38.5C32.1 38.5 29.7 36.1 29.7 33.2" stroke="#67E8F9" stroke-width="1.3" stroke-linecap="round"/>
    <path d="M38.7 29.7H40.7V27.7M31.3 36.3H29.3V38.3" stroke="#67E8F9" stroke-width="1.3" stroke-linecap="round" stroke-linejoin="round"/>
</svg>
