<svg xmlns="http://www.w3.org/2000/svg" width="1600" height="900" viewBox="0 0 1600 900" role="img" aria-labelledby="title desc">
    <title id="title">Advance Search and Quick Search for Odoo 19</title>
    <desc id="desc">Attractive marketplace banner for the Odoo quick advanced search module.</desc>
    <defs>
        <linearGradient id="bg" x1="0" y1="0" x2="1" y2="1">
            <stop offset="0" stop-color="#170b3f"/>
            <stop offset="0.48" stop-color="#3b1b70"/>
            <stop offset="1" stop-color="#7b2d91"/>
        </linearGradient>
        <linearGradient id="accent" x1="0" y1="0" x2="1" y2="1">
            <stop offset="0" stop-color="#f4a000"/>
            <stop offset="1" stop-color="#ffca45"/>
        </linearGradient>
        <linearGradient id="screen" x1="0" y1="0" x2="1" y2="1">
            <stop offset="0" stop-color="#ffffff"/>
            <stop offset="1" stop-color="#f5f2fb"/>
        </linearGradient>
        <linearGradient id="chip" x1="0" y1="0" x2="1" y2="0">
            <stop offset="0" stop-color="#714b8f"/>
            <stop offset="1" stop-color="#9c5fb4"/>
        </linearGradient>
        <filter id="deepShadow" x="-20%" y="-20%" width="140%" height="140%">
            <feDropShadow dx="0" dy="24" stdDeviation="28" flood-color="#0c0524" flood-opacity="0.35"/>
        </filter>
        <filter id="softShadow" x="-20%" y="-20%" width="140%" height="140%">
            <feDropShadow dx="0" dy="12" stdDeviation="16" flood-color="#160a34" flood-opacity="0.22"/>
        </filter>
    </defs>

    <rect width="1600" height="900" fill="url(#bg)"/>
    <circle cx="1445" cy="70" r="245" fill="#ffffff" opacity="0.08"/>
    <circle cx="112" cy="812" r="238" fill="#05021b" opacity="0.34"/>
    <circle cx="1260" cy="870" r="330" fill="#f4a000" opacity="0.14"/>
    <path d="M0 645 C260 548 360 713 610 620 C840 535 910 337 1200 410 C1375 455 1484 380 1600 318 L1600 900 L0 900 Z" fill="#ffffff" opacity="0.055"/>

    <g transform="translate(72 64)" filter="url(#softShadow)">
        <rect width="172" height="172" rx="36" fill="#1b103d" opacity="0.92"/>
        <text x="36" y="69" fill="#ffffff" font-family="Arial, Helvetica, sans-serif" font-size="32" font-weight="900" letter-spacing="2">ODOO</text>
        <text x="34" y="119" fill="#e39a00" font-family="Arial, Helvetica, sans-serif" font-size="56" font-weight="900">VIX</text>
    </g>

    <g transform="translate(72 282)">
        <rect x="0" y="0" width="138" height="40" rx="20" fill="url(#accent)"/>
        <text x="22" y="27" fill="#201248" font-family="Arial, Helvetica, sans-serif" font-size="18" font-weight="900">ODOO 19</text>
        <text x="0" y="116" fill="#ffffff" font-family="Arial, Helvetica, sans-serif" font-size="72" font-weight="900" letter-spacing="1">ADVANCE</text>
        <text x="0" y="190" fill="#ffffff" font-family="Arial, Helvetica, sans-serif" font-size="72" font-weight="900" letter-spacing="1">SEARCH</text>
        <text x="0" y="266" fill="#f0dcff" font-family="Arial, Helvetica, sans-serif" font-size="42" font-weight="800">&amp; QUICK SEARCH</text>
        <text x="0" y="330" fill="#dac8ef" font-family="Arial, Helvetica, sans-serif" font-size="29" font-weight="500">Dynamic search fields for any model</text>
        <text x="0" y="370" fill="#dac8ef" font-family="Arial, Helvetica, sans-serif" font-size="29" font-weight="500">directly inside Odoo list views.</text>

        <g transform="translate(0 414)" font-family="Arial, Helvetica, sans-serif" font-size="22" font-weight="800">
            <rect width="176" height="48" rx="24" fill="#ffffff" opacity="0.92"/>
            <text x="24" y="31" fill="#201248">Any Model</text>
            <rect x="194" width="205" height="48" rx="24" fill="#ffffff" opacity="0.92"/>
            <text x="218" y="31" fill="#201248">Date Search</text>
            <rect x="417" width="214" height="48" rx="24" fill="#ffffff" opacity="0.92"/>
            <text x="441" y="31" fill="#201248">Fast Filters</text>
        </g>
    </g>

    <g transform="translate(686 112)" filter="url(#deepShadow)">
        <rect width="842" height="604" rx="34" fill="url(#screen)"/>
        <rect width="842" height="62" rx="34" fill="#f0ebf7"/>
        <circle cx="36" cy="31" r="8" fill="#e06a5f"/>
        <circle cx="62" cy="31" r="8" fill="#f0be42"/>
        <circle cx="88" cy="31" r="8" fill="#61c454"/>
        <rect x="130" y="18" width="196" height="28" rx="14" fill="#ffffff"/>
        <text x="152" y="38" fill="#714b8f" font-family="Arial, Helvetica, sans-serif" font-size="15" font-weight="800">Sales Orders</text>
        <rect x="607" y="16" width="74" height="30" rx="8" fill="#714b8f"/>
        <text x="625" y="37" fill="#ffffff" font-family="Arial, Helvetica, sans-serif" font-size="15" font-weight="800">List</text>
        <rect x="694" y="16" width="104" height="30" rx="8" fill="#ffffff"/>
        <text x="716" y="37" fill="#6d607a" font-family="Arial, Helvetica, sans-serif" font-size="15" font-weight="800">Search</text>

        <g transform="translate(38 92)">
            <rect x="0" y="0" width="766" height="136" rx="18" fill="#ffffff" stroke="#dfd6ea"/>
            <g font-family="Arial, Helvetica, sans-serif" font-size="14" font-weight="800" fill="#32233f">
                <text x="22" y="30">Customer</text>
                <text x="212" y="30">Customer Reference</text>
                <text x="445" y="30">Payment Terms</text>
                <text x="622" y="30">Order Date</text>
            </g>
            <rect x="22" y="48" width="166" height="38" rx="7" fill="#f8f6fb" stroke="#ddd4e8"/>
            <text x="38" y="73" fill="#8f819e" font-family="Arial, Helvetica, sans-serif" font-size="15">Gemini</text>
            <rect x="212" y="48" width="204" height="38" rx="7" fill="#f8f6fb" stroke="#ddd4e8"/>
            <text x="228" y="73" fill="#b0a6bb" font-family="Arial, Helvetica, sans-serif" font-size="15">contains...</text>
            <rect x="445" y="48" width="150" height="38" rx="7" fill="#f8f6fb" stroke="#ddd4e8"/>
            <text x="461" y="73" fill="#b0a6bb" font-family="Arial, Helvetica, sans-serif" font-size="15">contains...</text>
            <rect x="622" y="48" width="122" height="38" rx="7" fill="#f8f6fb" stroke="#ddd4e8"/>
            <text x="640" y="73" fill="#714b8f" font-family="Arial, Helvetica, sans-serif" font-size="15" font-weight="800">Jun 5</text>
            <rect x="22" y="100" width="92" height="34" rx="8" fill="url(#chip)"/>
            <text x="42" y="123" fill="#ffffff" font-family="Arial, Helvetica, sans-serif" font-size="15" font-weight="900">Search</text>
            <rect x="124" y="100" width="76" height="34" rx="8" fill="#e8e3ef"/>
            <text x="146" y="123" fill="#3d3149" font-family="Arial, Helvetica, sans-serif" font-size="15" font-weight="900">Reset</text>
        </g>

        <g transform="translate(38 257)">
            <rect width="766" height="298" rx="18" fill="#ffffff" stroke="#dfd6ea"/>
            <rect width="766" height="48" rx="18" fill="#f7f5fa"/>
            <g font-family="Arial, Helvetica, sans-serif" font-size="15" font-weight="900" fill="#2d2435">
                <text x="30" y="31">Number</text>
                <text x="155" y="31">Creation Date</text>
                <text x="325" y="31">Customer</text>
                <text x="520" y="31">Total</text>
                <text x="625" y="31">Status</text>
            </g>
            <g font-family="Arial, Helvetica, sans-serif" font-size="15" fill="#44394f">
                <rect x="0" y="48" width="766" height="1" fill="#ebe6f2"/>
                <text x="30" y="82" font-weight="800">S00016</text>
                <text x="155" y="82">Jun 5, 10:34 AM</text>
                <text x="325" y="82">Gemini Furniture</text>
                <text x="520" y="82" fill="#0088a8" font-weight="900">$ 1,186.50</text>
                <rect x="625" y="62" width="92" height="24" rx="12" fill="#2fb344"/>
                <text x="640" y="80" fill="#ffffff" font-size="12" font-weight="900">Sales Order</text>

                <rect x="0" y="101" width="766" height="1" fill="#ebe6f2"/>
                <text x="30" y="135" font-weight="800">S00014</text>
                <text x="155" y="135">Jun 5, 10:34 AM</text>
                <text x="325" y="135">Gemini Furniture</text>
                <text x="520" y="135">$ 1,582.00</text>
                <rect x="625" y="115" width="92" height="24" rx="12" fill="#2fb344"/>
                <text x="640" y="133" fill="#ffffff" font-size="12" font-weight="900">Sales Order</text>

                <rect x="0" y="154" width="766" height="1" fill="#ebe6f2"/>
                <text x="30" y="188" font-weight="800">S00013</text>
                <text x="155" y="188">Jun 5, 10:34 AM</text>
                <text x="325" y="188">Gemini Furniture</text>
                <text x="520" y="188">$ 415.50</text>
                <rect x="625" y="168" width="92" height="24" rx="12" fill="#2fb344"/>
                <text x="640" y="186" fill="#ffffff" font-size="12" font-weight="900">Sales Order</text>

                <rect x="0" y="207" width="766" height="1" fill="#ebe6f2"/>
                <text x="30" y="241" font-weight="800">S00007</text>
                <text x="155" y="241">Jun 5, 10:34 AM</text>
                <text x="325" y="241">Gemini Furniture</text>
                <text x="520" y="241">$ 1,706.00</text>
                <rect x="625" y="221" width="92" height="24" rx="12" fill="#2fb344"/>
                <text x="640" y="239" fill="#ffffff" font-size="12" font-weight="900">Sales Order</text>
            </g>
        </g>

        <g transform="translate(590 508)">
            <rect width="190" height="54" rx="27" fill="#201248" opacity="0.92"/>
            <path d="M34 27 l14 14 l33 -35" fill="none" stroke="#ffca45" stroke-width="8" stroke-linecap="round" stroke-linejoin="round"/>
            <text x="92" y="35" fill="#ffffff" font-family="Arial, Helvetica, sans-serif" font-size="18" font-weight="900">Matched</text>
        </g>
    </g>

    <g transform="translate(72 792)" font-family="Arial, Helvetica, sans-serif">
        <text fill="#f0dcff" font-size="27" font-weight="600">Add configurable search boxes to Odoo list views without changing every model manually.</text>
    </g>
</svg>
